<?xml version="1.0" encoding="utf-8"?>
<svg version="1.1" id="Layer_1"
xmlns="http://www.w3.org/2000/svg"
xmlns:xlink="http://www.w3.org/1999/xlink"
width="184px" height="48px"
xml:space="preserve">
<g id="PathID_1" transform="matrix(0.821341, -0.0320637, 0.0231694, 0.593505, 24.75, 25.05)" opacity="1">
<linearGradient
id="LinearGradID_1" gradientUnits="userSpaceOnUse" gradientTransform="matrix(-1.51539e-009, 0.034668, -0.034668, -1.51539e-009, 0, 0)" spreadMethod ="pad" x1="-819.2" y1="0" x2="819.2" y2="0" >
<stop  offset="0" style="stop-color:#5A5C6C;stop-opacity:1" />
<stop  offset="1" style="stop-color:#1E2030;stop-opacity:1" />
</linearGradient>
<path style="fill:url(#LinearGradID_1) " d="M-0.25 -35.25L8.3 -33.35L8.4 -33.75Q10.2 -36.1 10.4 -32.85L13.45 -31.3L13.85 -29L16.4 -31.8Q17.75 -33.1 17.85 -31.5L17.2 -28L18.9 -26.85L19.2 -23.35L23.35 -20.2L21.35 -15.15Q23.1 -13.8 26 -15.75Q28.4 -17.45 28.4 -14.95L25.1 -10.9L26.85 -9.2L24.2 -4.75L26.85 -1.05L25.3 1.15L24.7 4.6L27.95 7.6L25 9.95L24.9 10.1Q24.15 11.05 25.5 11.95L22.95 17.85L23 20.75L16.65 22.65L16.2 25.45L12.5 25.9L10.95 28.9L6.85 25.8L2.25 26.25L2.2 29.4L1.6 30.8L-2.15 29.45L-3.05 39.6L-3 30.45L-6.75 28.15L-7.8 29.3L-17.4 28.15L-18.7 26.2L-21.1 28.9L-23.1 29.25L-23.8 26.8L-20.7 25.5L-18.45 22.8L-18.1 18.65L-21.3 17.4L-22.6 14.35L-26.05 13.45L-22.5 6.35L-24.95 3.7L-28.4 2.4L-25.8 -1.3L-26.7 -6.15Q-21.9 -12.15 -22 -20.5L-17.6 -18.55L-15.7 -19.95L-16.95 -27.95L-11.75 -27.6L-11.55 -31.05L-10.35 -32.7L-8 -29.95L-6.05 -31L-5.75 -39.65L-2.5 -32.55L-0.25 -35.25M20.35 -36.1Q20.85 -35.6 20.85 -34.75Q20.85 -33.95 20.35 -33.3Q19.8 -32.7 19.2 -32.7Q18.5 -32.7 18.05 -33.3Q17.55 -33.95 17.55 -34.75Q17.55 -35.6 18.05 -36.1Q18.5 -36.75 19.2 -36.75Q19.8 -36.75 20.35 -36.1" />
</g>
<g id="PathID_2" transform="matrix(0.821341, -0.0320637, 0.0231694, 0.593505, 24.75, 25.05)" opacity="1">
</g>
<g id="PathID_3" transform="matrix(0.527439, 0, 0, 0.625426, 49.35, 34.95)" opacity="1">
<path style="fill:#272A3F;fill-opacity:1" d="M6.15 -1.35L8.8 -1.35L10.45 -1.55L11.8 -1.85L11.6 -1.95L11.4 -2.5L9.85 -1.8L9.25 -1.65L6.05 -1.65L5.8 -2.25L6.85 -2.55L5.7 -2.55L5.8 -2.25L4.75 -1.95L5.1 -1.75L5.65 -1.65L6.05 -1.65L6.15 -1.35M2.05 -3.2L2.75 -2.75L4.05 -3.05L4.3 -3.1L2.9 -3.6L2.5 -3.25Q1.95 -3.25 2.05 -3.2M13.5 -4.6L13.5 -4.25L13.9 -4.25L13.55 -4.65L13.85 -4.85L14.3 -5.65L13.7 -5.85L13.7 -5.9L11.85 -7.15Q11.45 -7.65 10.25 -6.85L9.7 -6.95L8.95 -6.95L8.25 -6.95L6.45 -6.7L6.4 -6.7L5.85 -6.65L3.7 -6.25L3.65 -6.3L4 -6.7L3.65 -6.75L3.6 -7.45L3.25 -7.1L3.65 -6.3L3.6 -6.25Q3.1 -6.1 2.8 -5.85Q2.55 -5.55 2.55 -5.35Q2.55 -5.05 2.85 -4.5L3.15 -4.2L4.7 -3.3L6.05 -3L7.3 -2.9L9.9 -3.15L11.1 -3.6L11.45 -3.7L11.65 -3.95L13.45 -4.75L13.55 -4.65L13.5 -4.6M16.8 -17.6L17.05 -17.2L17 -18.1Q16.8 -17.9 16.8 -17.6Q16.35 -17.1 16.35 -16.5L16.35 -16L16.1 -13.3L15.95 -12.05L16.1 -12.05L16.3 -12.45L16.6 -13.25L16.85 -15.35L16.8 -15.35L16.9 -16.3L16.8 -17.6L16.75 -18.4Q16.65 -19.05 16.6 -18.85L16.4 -18.25L16.8 -17.6M7.8 -18.7L7.65 -18.7L7.6 -18.7L7.6 -18.55L7.8 -18.7L8.2 -18.65L8.05 -18.8L8.5 -19.1L8.7 -18.5L9.2 -19.4L10.45 -20.2L10.4 -20.3L11.25 -20.75L11.75 -21L12.9 -20.65L13.8 -21.75L14.2 -21.85L15.4 -22.1L16.6 -22.25L17.3 -22.35L18.25 -22.15L18.55 -22.1L18.6 -22.1L18.85 -22.05L19.1 -22L19.85 -21.6L21.05 -20.4L21.7 -18.95L22 -16.8L21.8 -14.75L21.55 -12.45L20.6 -9.55L20.7 -9.55L20.2 -8.05L20.4 -7.95L20.3 -7.35L20 -6.85L19.6 -5.9L19.45 -5.7L19.4 -5.6L19.3 -5.3L19.05 -4.6L18.85 -4.65L18.95 -4.35L19.05 -4.6L19.1 -4.6L19.25 -4.65L19.65 -4.9L20.65 -4.9L22.05 -5.35L21.15 -3.55L20.75 -3.1L19.95 -2.15L19 -1.25L18.85 -1Q18.35 -0.4 18.15 -0.3L16.95 0.45L16.1 1.1L15.9 1.1L14.95 1.25L15 0.6L14.9 0.6L14.55 1.35L14.55 1.45L14.4 1.65L14.2 1.8L13.65 2L13.2 1.4L13.6 1.1L14.35 0.95L14.4 0.8L14.25 0.85L14.15 0.7L13.6 1.1L13.15 1.2L13.15 0.55L13.35 0.55L14.05 0.25L13.85 -0.05L13.15 0.25L13.15 0.55L12.85 0.55L12.25 0.55L12.2 -0.25L12.45 -0.55L12.2 -0.45L12.2 -0.25L11.9 0.15Q11.3 0.5 9.8 0.65L10.05 0.25L11.5 -0.3L11.35 -0.8L11.4 -0.9L11.3 -0.9L11 -0.7L10.45 -0.45L10.05 0.25L8.7 0.3Q9.5 -0.8 9.65 -0.15L9.2 0L8.75 0L8.65 0.05L8 0.45L7.95 0.4L7.8 0.55L8 0.45L8.05 0.5L7.1 0.85L6.85 0.8L6.3 0.85L5.75 1.1L5.4 0.95L5.6 1.15L2.9 0.6L1.45 -0.15L0.4 -0.95L0.4 -1.25L0.15 -1.25L0.25 -1.05L0.4 -0.95L0.4 -0.5L0.05 -0.85L-0.45 -1.65L-0.5 -1.3L-1.05 -1.3L0.4 -0.25L0.4 -0.5Q0.8 0.05 1.75 0.8L1.3 0.75L2.15 1.05L2.1 1.25L2.9 1.3L2.15 1.05L2.25 0.6L3.5 1.7L1.45 1.6L-0.85 -0.05L-1.6 -1.35Q-2 -1.95 -2 -2.65Q-2 -2.85 -1.85 -2.85L-2.05 -2.8L-1.05 -5.25L-0.3 -6.2L-0.2 -6.35L1.35 -7.5L2.25 -8.15L2.7 -8.65L2.65 -8.35L2.55 -8.15L2.65 -8.15L2.65 -8.35L3.1 -9.15Q3.35 -9.4 4.7 -9.7L4.45 -9.1L3.85 -8.95L3.15 -8.15L4.15 -8.5L4.45 -9.1L4.6 -9.15L5.8 -9.7L6.5 -9.8L7 -10.05L7.1 -10.15L7.2 -10.2Q7.3 -10.2 7.2 -10.15L7.25 -10.15L7.35 -10.25L7.4 -10.25L7.55 -10.55L7.8 -10.55L7.85 -10.05L7.85 -10.55L7.8 -10.55L7.75 -10.75L9.75 -10.85L11.9 -11.05L11.9 -10.95L11.6 -10.85L11.9 -10.85L11.9 -10.95L12.15 -10.9L12.9 -10.9L13.95 -10.8L15.15 -11.05L15.1 -10.85L15.65 -10.8L15.65 -11.05L15.75 -11.1L15.65 -11.2L15.65 -11.05L15.6 -11L14.9 -11.2L12.05 -11.25L9.3 -11.1L9.95 -12.15L10.5 -12.25L11.05 -12.35L13.1 -12.35L14.3 -12.45L15 -12.35L15 -12.3L15.1 -12.35L15 -12.35L15.4 -13.75L15.65 -15.7L15.65 -17.3Q15.65 -17.95 15.5 -18.45L15.3 -18.5L15.1 -19.15L15.05 -19.25L16 -18.85L15.95 -19.15L15.05 -19.25L14.9 -19.3L14 -19.25L11.95 -18.05L11.65 -17.7L11.1 -17.2L10.8 -17L10.8 -16.95L10.35 -17L8.25 -14.5L8.25 -14.7L8.2 -14.75L8.2 -14.45L8.15 -13.8L7.2 -12.05L6.3 -11.5L5.55 -11.2L5.45 -11.75L5.7 -11.75L5.4 -12.25L5.45 -11.75L5.35 -11.7L5.35 -11.75L5.15 -11.7L5.35 -11.7L5.05 -11L4.5 -10.6L2.9 -10.35L3 -10.8L2.55 -10.05L2.55 -10.55L2.05 -11.55L2.15 -11.8L3.05 -11.6L3.05 -12.25L2.3 -12.25L2.15 -11.8L1.75 -11.75L1.8 -12.75Q2.2 -13.2 2.2 -13.35L2.5 -14.6L2.6 -14.95L2.75 -15.75Q2.8 -16 3.55 -17.1L3.55 -18L3.95 -17.95L3.95 -17.8L4 -17.05L4.85 -17.3L4.9 -17.5L4.2 -17.7L4.6 -17.85L3.95 -17.95L3.9 -18.3L5 -18.3Q5.1 -18.15 5.1 -17.95L4.75 -17.65L4.9 -17.5L5.35 -17.1Q5.55 -17.5 5.1 -17.95L5.25 -18.05L5.25 -18.7L6.15 -18.05L7.2 -19.4L7.3 -19.3L7 -18.9L7.7 -18.9L7.7 -19.05L7.5 -19.05L7.3 -19.3L7.4 -19.5L8.05 -18.8L7.8 -18.7M4.4 -1.95L4.3 -2L4.1 -1.9L4.2 -2.3L3.85 -2.3L3.95 -2.05L3.95 -1.85L4.4 -1.85L4.5 -1.9L4.4 -1.95M9.75 -0.2Q9.5 -0.2 9.4 -0.3L9.7 -0.2L9.7 -0.15L9.9 -0.1L9.8 -0.2L9.75 -0.2M11.85 -1.85L12.1 -1.85L12.1 -1.9L11.85 -1.85" />
</g>
<g id="PathID_4" transform="matrix(0.527439, 0, 0, 0.625426, 49.35, 34.95)" opacity="1">
</g>
<g id="PathID_5" transform="matrix(0.527439, 0, 0, 0.625426, 67.3, 34.95)" opacity="1">
<path style="fill:#272A3F;fill-opacity:1" d="M5.4 -19.1L5.05 -18.75L5.6 -18.7L5.5 -18L5.8 -17.95L5.6 -19.05L6.1 -18.9L6.2 -18.95L7.85 -20.05L7.9 -20.1L8.55 -20.7Q9.1 -20.8 9.35 -21L10.05 -21.55L10.15 -21.65L10.65 -22.05L11.05 -21.85Q11.3 -22.05 11.55 -22.05L11.9 -22.05L12.15 -22L12.6 -20.7L12.15 -18.4L11.25 -15.45L10.55 -13.55L10.35 -13.45L10.35 -13.25L10.45 -13.3L10.55 -13.55L10.8 -13.7L10.3 -12.4L10.3 -12.3L9.65 -11.75L9.7 -11.25L10.15 -11.65L10.3 -11.85L10.3 -12.3L11.1 -13L10.7 -12L10.4 -11.75L10.15 -11.65L9.85 -11.2L9.65 -11.1L9.35 -10.8L9.3 -10.8L9.2 -10.65L8.65 -10.1L9.05 -9.9L9.3 -10.45L9.2 -10.45L9.4 -10.8L10 -10.85L10.45 -11.4L10.7 -12Q10.95 -12.3 11.25 -12.45L11.55 -12.7L11.65 -12.8L12.25 -13.4L12.4 -13.4L13.55 -14.55L13.75 -14.75L15.2 -15.7L15.25 -15.65L15.3 -15.8L15.2 -15.7L15.05 -15.85L15.75 -16.4L17 -17.55L17.25 -18.35L17.6 -18.35L17.4 -18.5L17.3 -18.55L17.25 -18.35L17.1 -18.35L17.1 -19.55L18.35 -19.45L18.55 -19.1L18.65 -19.25L18.75 -19.2L18.75 -19.15L18.85 -19.15L18.75 -19.2L18.95 -19.55L19.35 -19.65L19.8 -20.05L20.35 -20.15L20.85 -20.05L20.9 -20.05L22.45 -20.6L22.45 -20.75L23.3 -21L23.45 -21.2L23.6 -21.2L23.5 -21.75L24.25 -21.6L24.2 -21.55L24.4 -21.55L24.25 -21.6L24.6 -21.75L25.45 -21.2L25.35 -20.4L25.2 -19.9L24.95 -18L24.7 -17L23.7 -13.25L23.6 -12.85L23.35 -12.15L23.3 -11.95L22.75 -10.05L22 -8.15L21.6 -7.1L21.1 -5.5L20.8 -5.35L20.7 -5L19.9 -1.75L19.5 0.1L19.2 1.35L18.05 1.25L18.05 -0.05L17.9 -0.4L17.9 -0.45L17.55 -0.5L17.9 -3.55L17.1 -2.5L17.15 -3.35L17.2 -3.4L16.5 -3.25L16.7 -4.7L16.45 -4.85L16.2 -5.35L16.35 -6.55L16.8 -6.3L17.1 -6.65L16.45 -6.65L16.4 -7.05L16.35 -6.55L16.1 -6.7L15.95 -6.8L15.95 -6.9L15.6 -6.9L15.9 -9.7L16.2 -11.3L16.3 -11.3L16.2 -11.35L15.75 -11.8L15.85 -12.45L16 -12.65L16 -12.8L16.15 -13.4L16.25 -13.45L16.4 -14.15L16.15 -13.4L15.95 -13.2L13.9 -11.4L12.85 -10.35L11.25 -9.6L11.2 -9.55L10.85 -8.45L10.65 -8.3L10.55 -8.15L9.95 -7.9L7.7 -5.25L7.05 -4.5L7 -4.15L6.7 -3.65L5.75 -1.9L5.55 -1.75L5.45 -1.45L5.2 -1.25Q5.05 -0.7 3.7 -0.1L3.95 -1.15L2.1 0.35L1.45 -0.8L1.35 -0.6L0.1 -1.7L0.05 -1.75Q-0.5 -2.4 -0.5 -3.65L-0.1 -3.35L-0.15 -3.15L0.45 -3.4L0.9 -3.65L0.7 -3.4L0.45 -3.4L0.5 -3.35L1.05 -3.25L1.05 -3.7L0.9 -3.65L1 -3.75L2.2 -4.45L3.15 -5.5L3.75 -6.1Q3.95 -6.3 4.2 -6.4L4.4 -6.3L4.4 -6.55L4.2 -6.4L4.25 -6.75L4.15 -6.95L4.25 -7.5L3.8 -9.8L3.85 -10.9L3.85 -10.95L3.35 -11.45L3.7 -12.7L3.65 -12.7L3 -12.65L4.65 -19.25L5.6 -19.15L5.6 -19.05L5.4 -19.1" />
</g>
<g id="PathID_6" transform="matrix(0.527439, 0, 0, 0.625426, 67.3, 34.95)" opacity="1">
</g>
<g id="PathID_7" transform="matrix(0.527439, 0, 0, 0.625426, 86.2, 34.95)" opacity="1">
<path style="fill:#272A3F;fill-opacity:1" d="M15.25 -19.55L14.9 -19.7L14.55 -19.5L14.5 -18.85L13.25 -17.8L12.45 -16.8L9.9 -14.15L8.1 -11.95L6.65 -9.6L5.9 -7.7L5.75 -7.15L5.75 -5.7L7.1 -5.4L7.4 -5.45L9.3 -5.75L9.85 -5.95L10.3 -6.2L11.9 -7.65L12.35 -8.25L13.25 -9.45L13.25 -9.55L13.8 -10.3L13.95 -11.05L13.8 -11.3L14.05 -12.3L14.35 -14L14.9 -13.65L15.6 -16.25L15.85 -18.15L16 -19.85L16.1 -19.85L16.2 -19.95L18.25 -21.1L18.95 -21.55L19.35 -21.7L19.6 -21.85L20.65 -22.2L21.15 -23.2L22.2 -23L22.2 -22.6L22.4 -22.35L22.6 -20.95L22.65 -19.1L22.35 -17.55L22.25 -15.2L21.2 -15.45L20.7 -12.3L20.4 -11.3L20.05 -10.5L19.65 -9.15L19.1 -7.45L17.3 -3.65L14.7 0.5L11.8 4.2L11.05 5.1L10.85 5.35L10.85 5.9L9.1 7.9L8.3 8.55L7.65 9.3L4.8 10.1L3.3 10.1L3.35 10.05L4.55 9.8L5.25 9.6L6.9 9L6.7 8.6L5.15 8.8L4.05 9.05L3.35 10.05L2.7 10.15L0.2 10L0.05 9.3L0.95 9.4L0.9 9.6L1.5 9.3L1.1 8.9L-0.05 8.85L0.05 9.3L-0.9 9.15L-2.2 8.9L-2.65 8.15Q-2.45 8.3 -2.25 8.3L-2.15 7.5L-3.05 7.45L-2.65 8.15Q-3.15 8.1 -3.85 7.75L-3.95 6.9L-3.75 6.85L-3.8 6.4L-2.85 6.45L-2.8 6.65L-2.75 6.6L-2.8 6.45L-2.85 6.45L-3.05 5.8L-3.05 5.75L-3.55 5.55L-3.55 5.4L-4.05 4.95L-3.85 4.5L-3.85 4.4L-3.95 3.6L-2.45 3.85L-1.95 4.5L-0.1 4.55L-0.15 4.2L-1.35 4.1L-1.45 4.05L-2.45 3.85L-3 3.15L-0.65 3.5L1.35 3.8L1.95 3.85L2.45 3.9L5.7 3.65L9.1 2.3L10.45 1.4L10.65 1.25L10.6 0.6Q11.3 0.45 11.45 0.25L12.35 -0.95L12.15 -1.8L12.05 -1.75L12.7 -3.45L12 -3.5L11.85 -3.4L11.6 -3.15L10.45 -2.8L8 -1.15L5.6 -0.1L4.9 0.1L2.7 0.45L2.35 0.45L1.65 0.35Q0.95 0.25 0.25 -0.15Q-0.65 -0.6 -0.85 -1L-1.5 -2.15L-1.7 -3.6L-1.5 -5.75L-0.75 -8.05L-0.25 -9.2L1.65 -12.05L2.65 -13.6L4.4 -15.8L7.65 -19.15L9.05 -20.25L9.25 -20.45L9.45 -20.45L10 -20.6L10.15 -20.4L10.25 -20.3L10.2 -20.4L10.6 -20.2L13.15 -20.95L13.2 -21.45L13.7 -21.65L13.85 -21.85L14.45 -21.85L15.9 -21.5L16.4 -20.35L16.05 -20.1L16 -19.85L15.5 -19.7L14.8 -16.7L14.35 -14L14.05 -14.2L14.3 -15.15L14.05 -15.15L14.5 -18.85L15.25 -19.55" />
</g>
<g id="PathID_8" transform="matrix(0.527439, 0, 0, 0.625426, 86.2, 34.95)" opacity="1">
</g>
<g id="PathID_9" transform="matrix(0.527439, 0, 0, 0.625426, 103.8, 34.95)" opacity="1">
<path style="fill:#272A3F;fill-opacity:1" d="M6.15 -1.35L8.8 -1.35L10.45 -1.55L11.8 -1.85L11.6 -1.95L11.4 -2.5L9.85 -1.8L9.25 -1.65L6.05 -1.65L5.8 -2.25L6.85 -2.55L5.7 -2.55L5.8 -2.25L4.75 -1.95L5.1 -1.75L5.65 -1.65L6.05 -1.65L6.15 -1.35M2.05 -3.2L2.75 -2.75L4.05 -3.05L4.3 -3.1L2.9 -3.6L2.5 -3.25Q1.95 -3.25 2.05 -3.2M13.5 -4.6L13.5 -4.25L13.9 -4.25L13.55 -4.65L13.85 -4.85L14.3 -5.65L13.7 -5.85L13.7 -5.9L11.85 -7.15Q11.45 -7.65 10.25 -6.85L9.7 -6.95L8.95 -6.95L8.25 -6.95L6.45 -6.7L6.4 -6.7L5.85 -6.65L3.7 -6.25L3.65 -6.3L4 -6.7L3.65 -6.75L3.6 -7.45L3.25 -7.1L3.65 -6.3L3.6 -6.25Q3.1 -6.1 2.8 -5.85Q2.55 -5.55 2.55 -5.35Q2.55 -5.05 2.85 -4.5L3.15 -4.2L4.7 -3.3L6.05 -3L7.3 -2.9L9.9 -3.15L11.1 -3.6L11.45 -3.7L11.65 -3.95L13.45 -4.75L13.55 -4.65L13.5 -4.6M16.8 -17.6L17.05 -17.2L17 -18.1Q16.8 -17.9 16.8 -17.6Q16.35 -17.1 16.35 -16.5L16.35 -16L16.1 -13.3L15.95 -12.05L16.1 -12.05L16.3 -12.45L16.6 -13.25L16.85 -15.35L16.8 -15.35L16.9 -16.3L16.8 -17.6L16.75 -18.4Q16.65 -19.05 16.6 -18.85L16.4 -18.25L16.8 -17.6M7.8 -18.7L7.65 -18.7L7.6 -18.7L7.6 -18.55L7.8 -18.7L8.2 -18.65L8.05 -18.8L8.5 -19.1L8.7 -18.5L9.2 -19.4L10.45 -20.2L10.4 -20.3L11.25 -20.75L11.75 -21L12.9 -20.65L13.8 -21.75L14.2 -21.85L15.4 -22.1L16.6 -22.25L17.3 -22.35L18.25 -22.15L18.55 -22.1L18.6 -22.1L18.85 -22.05L19.1 -22L19.85 -21.6L21.05 -20.4L21.7 -18.95L22 -16.8L21.8 -14.75L21.55 -12.45L20.6 -9.55L20.7 -9.55L20.2 -8.05L20.4 -7.95L20.3 -7.35L20 -6.85L19.6 -5.9L19.45 -5.7L19.4 -5.6L19.3 -5.3L19.05 -4.6L18.85 -4.65L18.95 -4.35L19.05 -4.6L19.1 -4.6L19.25 -4.65L19.65 -4.9L20.65 -4.9L22.05 -5.35L21.15 -3.55L20.75 -3.1L19.95 -2.15L19 -1.25L18.85 -1Q18.35 -0.4 18.15 -0.3L16.95 0.45L16.1 1.1L15.9 1.1L14.95 1.25L15 0.6L14.9 0.6L14.55 1.35L14.55 1.45L14.4 1.65L14.2 1.8L13.65 2L13.2 1.4L13.6 1.1L14.35 0.95L14.4 0.8L14.25 0.85L14.15 0.7L13.6 1.1L13.15 1.2L13.15 0.55L13.35 0.55L14.05 0.25L13.85 -0.05L13.15 0.25L13.15 0.55L12.85 0.55L12.25 0.55L12.2 -0.25L12.45 -0.55L12.2 -0.45L12.2 -0.25L11.9 0.15Q11.3 0.5 9.8 0.65L10.05 0.25L11.5 -0.3L11.35 -0.8L11.4 -0.9L11.3 -0.9L11 -0.7L10.45 -0.45L10.05 0.25L8.7 0.3Q9.5 -0.8 9.65 -0.15L9.2 0L8.75 0L8.65 0.05L8 0.45L7.95 0.4L7.8 0.55L8 0.45L8.05 0.5L7.1 0.85L6.85 0.8L6.3 0.85L5.75 1.1L5.4 0.95L5.6 1.15L2.9 0.6L1.45 -0.15L0.4 -0.95L0.4 -1.25L0.15 -1.25L0.25 -1.05L0.4 -0.95L0.4 -0.5L0.05 -0.85L-0.45 -1.65L-0.5 -1.3L-1.05 -1.3L0.4 -0.25L0.4 -0.5Q0.8 0.05 1.75 0.8L1.3 0.75L2.15 1.05L2.1 1.25L2.9 1.3L2.15 1.05L2.25 0.6L3.5 1.7L1.45 1.6L-0.85 -0.05L-1.6 -1.35Q-2 -1.95 -2 -2.65Q-2 -2.85 -1.85 -2.85L-2.05 -2.8L-1.05 -5.25L-0.3 -6.2L-0.2 -6.35L1.35 -7.5L2.25 -8.15L2.7 -8.65L2.65 -8.35L2.55 -8.15L2.65 -8.15L2.65 -8.35L3.1 -9.15Q3.35 -9.4 4.7 -9.7L4.45 -9.1L3.85 -8.95L3.15 -8.15L4.15 -8.5L4.45 -9.1L4.6 -9.15L5.8 -9.7L6.5 -9.8L7 -10.05L7.1 -10.15L7.2 -10.2Q7.3 -10.2 7.2 -10.15L7.25 -10.15L7.35 -10.25L7.4 -10.25L7.55 -10.55L7.8 -10.55L7.85 -10.05L7.85 -10.55L7.8 -10.55L7.75 -10.75L9.75 -10.85L11.9 -11.05L11.9 -10.95L11.6 -10.85L11.9 -10.85L11.9 -10.95L12.15 -10.9L12.9 -10.9L13.95 -10.8L15.15 -11.05L15.1 -10.85L15.65 -10.8L15.65 -11.05L15.75 -11.1L15.65 -11.2L15.65 -11.05L15.6 -11L14.9 -11.2L12.05 -11.25L9.3 -11.1L9.95 -12.15L10.5 -12.25L11.05 -12.35L13.1 -12.35L14.3 -12.45L15 -12.35L15 -12.3L15.1 -12.35L15 -12.35L15.4 -13.75L15.65 -15.7L15.65 -17.3Q15.65 -17.95 15.5 -18.45L15.3 -18.5L15.1 -19.15L15.05 -19.25L16 -18.85L15.95 -19.15L15.05 -19.25L14.9 -19.3L14 -19.25L11.95 -18.05L11.65 -17.7L11.1 -17.2L10.8 -17L10.8 -16.95L10.35 -17L8.25 -14.5L8.25 -14.7L8.2 -14.75L8.2 -14.45L8.15 -13.8L7.2 -12.05L6.3 -11.5L5.55 -11.2L5.45 -11.75L5.7 -11.75L5.4 -12.25L5.45 -11.75L5.35 -11.7L5.35 -11.75L5.15 -11.7L5.35 -11.7L5.05 -11L4.5 -10.6L2.9 -10.35L3 -10.8L2.55 -10.05L2.55 -10.55L2.05 -11.55L2.15 -11.8L3.05 -11.6L3.05 -12.25L2.3 -12.25L2.15 -11.8L1.75 -11.75L1.8 -12.75Q2.2 -13.2 2.2 -13.35L2.5 -14.6L2.6 -14.95L2.75 -15.75Q2.8 -16 3.55 -17.1L3.55 -18L3.95 -17.95L3.95 -17.8L4 -17.05L4.85 -17.3L4.9 -17.5L4.2 -17.7L4.6 -17.85L3.95 -17.95L3.9 -18.3L5 -18.3Q5.1 -18.15 5.1 -17.95L4.75 -17.65L4.9 -17.5L5.35 -17.1Q5.55 -17.5 5.1 -17.95L5.25 -18.05L5.25 -18.7L6.15 -18.05L7.2 -19.4L7.3 -19.3L7 -18.9L7.7 -18.9L7.7 -19.05L7.5 -19.05L7.3 -19.3L7.4 -19.5L8.05 -18.8L7.8 -18.7M4.4 -1.95L4.3 -2L4.1 -1.9L4.2 -2.3L3.85 -2.3L3.95 -2.05L3.95 -1.85L4.4 -1.85L4.5 -1.9L4.4 -1.95M9.75 -0.2Q9.5 -0.2 9.4 -0.3L9.7 -0.2L9.7 -0.15L9.9 -0.1L9.8 -0.2L9.75 -0.2M11.85 -1.85L12.1 -1.85L12.1 -1.9L11.85 -1.85" />
</g>
<g id="PathID_10" transform="matrix(0.527439, 0, 0, 0.625426, 103.8, 34.95)" opacity="1">
</g>
<g id="PathID_11" transform="matrix(0.527439, 0, 0, 0.625426, 121.8, 34.95)" opacity="1">
<path style="fill:#272A3F;fill-opacity:1" d="M1.2 -5.05L0.8 -4Q0.55 -3.55 0.55 -3.4L0.05 -1.85L0 -1.7L-0.1 -0.85L0.45 -0.7L0.4 -0.45L-0.7 -0.55L-0.6 -1.6L0 -3.7L0.6 -5.15L1.3 -5.35L1.2 -5.05M1.3 -0.5L1.35 -0.35L1.25 -0.5L1.15 -0.5L0.5 -0.4L0.55 -0.65L0.45 -0.7L0.7 -1.45L1.15 -3.6L1.75 -5.25L1.45 -4.1L1.1 -2.7L0.7 -1.45L0.55 -0.65L1.15 -0.5L1.15 -0.65L1.25 -0.55L1.35 -0.55L1.2 -1.35L1.35 -1.95L2.9 -6.4L3.2 -7.25L2.95 -7.5L2.35 -6.45L1.8 -5.3L1.85 -5.5L1.3 -5.35L1.6 -6.25L1.7 -6.65L2.25 -7.25L2.3 -7.35L2.35 -7.55L1.8 -6.9L1.7 -6.65L1.05 -5.8L2 -8.95L2.3 -10L2.6 -10.7L3.1 -12.05L3.3 -12.45L3.35 -12.55L2.35 -12.15L4.35 -17.45L5.85 -20.95L6.55 -21.95L6.85 -21.75L6.9 -21.9L7 -21.9L7.3 -22.75L8.5 -24.6L7.8 -24.45Q7.15 -24.45 7.15 -25.1Q7.15 -25.35 7.6 -26.25L8 -26.75L8.05 -27.4L8.35 -27.35L8.3 -27.1L8 -26.55L8.2 -26.6L8.3 -27.1L9.1 -28.55L9.05 -28.7L9.35 -29.15L9.95 -30.55L10.6 -31.35L12.1 -32.65L12.2 -32.4L12.25 -32.85L12.95 -33.1L14.4 -33.25L14.5 -33.35L14.75 -33.6L15.15 -33.65L15.95 -33.8L17 -33.9L17.05 -33.85L16.9 -33.85L16.75 -33.7L17.15 -33.7L17.05 -33.85L18.05 -33.9L16.7 -31.35L16.6 -31.7L16.15 -29.65L14.5 -26.3L13 -23.35L11.65 -20.1L9.05 -14.2L6.15 -6.9L5.85 -5.85L5.4 -5.5L5.75 -5.45L5.85 -5.85L6.55 -6.4L6.6 -6.3L8 -7.75L8.15 -7.65L8.25 -7.9L8.95 -8.3L10.25 -8.8L10.2 -8.5L9.6 -8L8.3 -6.5L7.95 -6.35L8.05 -6.2L8.25 -6.05L8.15 -5.95L8.2 -5.9L9.1 -6.75L10.05 -7.75Q10.2 -8 10.2 -8.5L10.55 -8.8L11.35 -8.6L12.4 -9.5L12.45 -9.7L13.7 -9.9L14.5 -10.95L15.1 -11.5L16.2 -11.75L15.9 -10.7L15.8 -10.6L15.6 -10.9Q14.7 -10.4 14.25 -10.25L13.2 -9.25L11.05 -7.5L10.15 -6.6L9.8 -5.6L10.8 -6L13.3 -8.3L14.55 -9.45L15.6 -10.45L15.8 -10.6L16.05 -10.2L14.3 -8.65L14.25 -8.95L9.9 -4.55L6.6 -1.4L5.55 -0.6L5.2 -0.3L4.95 -0.05Q4.6 0.2 4.3 0.6L2.8 0.95L3.3 0.25L3.3 0.2L3 0.3Q2.6 0.45 1.7 0.45L1.4 -0.25L1.35 -0.5M5.7 -15.2L5.6 -14.7L5.8 -15.2L5.7 -15.2L5.8 -15.7L5.65 -15.2L5.2 -15.25L5 -15.3L4.95 -14.9L4.4 -13.45L2.35 -7.55L2.5 -7.75L2.35 -7.4L2.65 -7.8L2.95 -7.5L3.7 -8.9L3.05 -6.2L3.4 -5.9L3.65 -6.75L4.3 -8.4L4.7 -9.3Q4.65 -9.35 4.8 -10.35L4.65 -10.3L4.4 -9.5L4.15 -9.65L3.7 -8.9L3.95 -9.8L3.7 -9.95L3.7 -10L3.75 -10.05L4.5 -12.05L5.65 -15.2L5.7 -15.2M6.85 -21.6L6.4 -20.8L6.35 -20.75L6.15 -20.3L5.6 -18.85Q5.45 -18.25 5.45 -17.7L4.8 -16.2L4.6 -15.6L4 -14.1L3.35 -12.55L3.55 -12.65L4.2 -14.1L5.7 -17.55L6.7 -19.75L7.35 -21.5L6.95 -21.75L6.9 -21.75L6.85 -21.75L6.85 -21.6M2.65 -7.8L2.6 -7.85L3.6 -9.8L3.05 -8.4L3.05 -8.3L2.65 -7.8M1.75 -0.55L1.7 -0.65L1.35 -0.55L1.35 -0.5L1.3 -0.5L1.75 -0.55M3.15 0.15L3.3 0.2L3.35 0.15L3.45 0.15L3.15 0.15M3.45 0.15L3.35 0.2L3.35 0.25L3.7 0.4L4.45 -0.3L4.7 -0.55L4.45 -0.95L4.35 -1.35L3.35 0.15M2.3 -6.45L2.2 -6.4L2.1 -6.05L2.3 -6.45M3.95 -9.9L3.95 -9.8L4.15 -9.65L4.45 -10.25L4 -10.1L4.35 -11.2L3.95 -9.9M4.65 -10.3L4.8 -10.85L4.45 -10.25L4.65 -10.3M4.35 -11.2L5.2 -12.75L5.6 -14.7L4.5 -12.05L4 -10.55L3.95 -10.45L3.95 -10.4L3.75 -10.05L4 -10.1M8.85 -24.6L8.65 -24.8L8.55 -24.6L8.85 -24.6" />
</g>
<g id="PathID_12" transform="matrix(0.527439, 0, 0, 0.625426, 121.8, 34.95)" opacity="1">
</g>
<g id="PathID_13" transform="matrix(0.527439, 0, 0, 0.625426, 133.85, 34.95)" opacity="1">
<path style="fill:#272A3F;fill-opacity:1" d="M22.8 -21.1L23.1 -21.05L22.95 -21.2L23.5 -21.7L23.5 -21.5L23.6 -21.7L23.55 -21.7L23.5 -21.7L23.65 -22.85L24.9 -22.45L24.9 -21.95L24.9 -21.9L24.4 -21.75L24.95 -21.7L24.9 -21.9L25.05 -21.95Q25.4 -20.95 25.4 -20.65Q25.4 -20.2 25.25 -19.95L23.8 -15.7L23.15 -13.5L21.75 -9.45L20.3 -4.2L19.5 -0.4Q19.25 0.6 19.05 0.8L18.85 1.05L18.75 1.05L18.8 0.75L18.95 0.25L18.85 0.3L18.8 0.75L18.65 1.2L18.7 1.65L17.5 1.4L17.7 0.6L17.7 0.15L17.5 0L17.85 -0.5L17.35 -0.25L17.5 -0.15L17.5 0L17 -0.7L16.85 -0.9L16.85 -0.95L16.95 -0.95L16.85 -1.05L16.85 -0.95L16.6 -0.95L16.35 -1.6L16.35 -1.95L16.75 -1.8L16.85 -2.8L16.35 -2.8L16.35 -1.95L16.3 -1.95L15.7 -1.85L15.9 -3.15L16.35 -3.25L16.8 -3.35L16.75 -3.45L16.35 -3.25L15.95 -3.35L15.9 -3.15L15.6 -3.05L15.55 -4.1L16.35 -4.45L15.7 -4.5L15.65 -4.6L15.55 -4.15L15.55 -4.1L15.15 -3.9L15.2 -5.4L15.55 -7.2L16.5 -10.35L16.7 -10.55L16.75 -10.7L16.85 -10.8L16.9 -10.95L16.55 -11.15L16.55 -11L16.5 -10.9L16.45 -10.45L16.5 -10.35L15.2 -9.1L14.4 -8.4L14.3 -8.2L13.95 -7.8L12.75 -6.7L10.95 -4.85L10.45 -4.6L8.3 -2.75L7.15 -1.85L5.5 -0.75Q5.05 -0.45 4.5 -0.35L4.2 -0.3L3.55 0L3.5 0.2L1.8 0.65L1.25 0.3L0.8 0.3L0.15 -0.15L-0.05 -1.3Q-0.05 -1.95 0.3 -3.1L0.5 -3.55L1.05 -5.25L1.15 -5.3L0.45 -5.5L1.6 -9.2L1.9 -10.05L2.25 -10.9L2.8 -13.05L3.1 -13.7L4.25 -17.2L4.85 -18.45L5.1 -18.95L5.25 -18.95L5.4 -19.35L6.3 -19.2L7.55 -19.7L7.9 -19.85L7.75 -20L8 -20.65L8.7 -20.55L9.1 -20.6L10.5 -21.75L11.2 -22.1L11.65 -22L11.85 -22.05L12.55 -22.4L13.2 -21L12.65 -20.15L13.05 -19.9L12.45 -19.1L11.9 -17.4L11.75 -17.35L11.7 -17.1L11.4 -16.95L11.4 -16.9L9.85 -13.55L8.35 -9.55L7.6 -7.25L7.7 -6.35L7.5 -6.2L7.55 -6.4L7 -5.95Q7.05 -5.7 7.15 -5.9L7.5 -6.2L7.45 -5.95L10.4 -8.9L10.6 -8.45L10.9 -8.3L11.2 -8.45L13.05 -9.9L13.8 -10.6L15.6 -12.6L17.75 -15.05L18.35 -16.65L19 -18.1L19.45 -19.25L19.65 -19.2L19.65 -19.15L19.75 -19.2L19.65 -19.2L19.65 -19.4L21.7 -20.85L21.7 -21.3L22.7 -21.3L22.7 -21.15L22.3 -21.05L22.7 -21.05L22.7 -21.15L22.9 -21.2L22.8 -21.1" />
</g>
<g id="PathID_14" transform="matrix(0.527439, 0, 0, 0.625426, 133.85, 34.95)" opacity="1">
</g>
<g id="PathID_15" transform="matrix(0.527439, 0, 0, 0.625426, 152.45, 34.95)" opacity="1">
<path style="fill:#272A3F;fill-opacity:1" d="M15.15 -5.3L14.75 -5.8L15.05 -5.7L15.2 -5.9L14.65 -5.9L14.75 -5.8L14.55 -5.85L14.65 -5.75L14.45 -5.75L14.45 -5.85L14.35 -5.85L14.45 -6.3L13.85 -6.25L14.25 -5.75L14.45 -5.75L14.2 -4.75L13.3 -5.25L13.2 -6L12.95 -5.9L12.7 -5.9L12.85 -5.6L11.25 -7.15L10.2 -8.65L10.15 -9L10 -8.7L9.85 -8.8L10.3 -7.45L9.05 -8.25Q9 -8.4 9.6 -8.6L9.6 -8.95L9.2 -8.4L9 -8.45L7.9 -7.4L5 -4.6L3.1 -2.6L1.45 -0.6L0.95 -0.15L0.85 0.05L0.15 0.7L-1.05 0.8L-0.95 0.3L-1.5 1.05L-0.65 -1.2L-0.15 -2.05L1.3 -3.9L3.7 -6.4L4.1 -6.5L7.35 -9.85L8.95 -10.95L7.6 -13.15L6.3 -15.5L5.75 -14.85L5.65 -14.85L4.9 -13.7L3.5 -12.05L2.9 -11.3L2.4 -10.85L1.45 -11.1L1.55 -11.3L2.3 -11.5L3.2 -12.95L3.95 -14.15L4.25 -15.8L3 -14.25L2.2 -12.9L2.25 -12.8L1.55 -11.3L1.25 -11.25L1.45 -12.2L2.7 -14.65L3.05 -15.3L4.1 -17.6L4.3 -18.05L4.2 -18.45L4.55 -18.75L4.7 -19.1L5.7 -20.8L7.55 -22.25L8.05 -22.45L7.9 -23.2L9.45 -23.35L9.35 -23.15L9.9 -23.35L9.8 -22.35L9.75 -22.25L10.2 -21.5L10.4 -21L10.6 -20.6L10.75 -20.4L10.85 -20.2L11.25 -19.3L14.05 -15L16.05 -16.2L17.3 -17L22.3 -19.8L24.65 -20.65L24.65 -20.5L24.9 -20.4L24.65 -20.05L24.95 -19.6L24.05 -19.4L23.1 -18.9L23.1 -18.8L22.95 -18.75L22.55 -18.2L21.1 -16.55M24.85 -19L25 -19.55L25.35 -19.05L25 -19.05L24.85 -19M21.2 -16.4L22.75 -17.5L23.55 -18.3Q23.85 -18.65 24.05 -18.7L24.6 -18.9L24.75 -18.95L24.85 -19L24.65 -18.2L23.8 -17.5L22.3 -16.2L21.05 -15.6L21.2 -16.3L21.05 -16.5L21.1 -16.55L20.95 -16.8L21.2 -16.4M20.95 -16.8L20.95 -16.85L21.35 -16.95L21.15 -16.95L20.95 -17L20.9 -16.95L21.15 -16.95L20.95 -16.85L20.8 -16.75L20.25 -16.4L20.5 -16.6L19.1 -15.9L18.5 -15.4L18.4 -15.35L18.2 -15.2L18.05 -15.1L17.95 -15.05L17.45 -14.75L17.35 -14.65L15.45 -13.35L15.35 -13.35L15.05 -13.35L15.8 -12.45L17.85 -9.05L18.2 -8.65L19.25 -7.15L19.75 -6.3L20.6 -5.15L21.15 -4.25L22.1 -2.7L22.7 -1.8L23.75 0.1L23.95 0.6L23.1 1.1L22.5 0.2L22.4 0.1L22.75 0L22.1 -1.2L22.1 -1.3L21.9 -1.7L21.7 -1.9Q21.5 -2.15 21.5 -1.95L21.55 -1.75L21.45 -1.85L21.1 -1.25L21.25 -1.25L21.55 -0.9L21.4 -1.35L21.9 -0.5L22.4 0.1L22.3 0.15L21.9 -0.5L21.55 -0.9L21.75 -0.2L22.2 0.15L21.9 0.25L21.75 -0.2L19.45 -2.15L18.6 -3.2L18.35 -3.5L17.2 -5.15L17.85 -4.55L17.3 -6.05L16.6 -7.3L15.55 -8.6L15.55 -8.5L15.8 -8L16.05 -7.55L16.15 -7.3Q16.25 -7.25 16.3 -7.1L16.4 -6.95L16.45 -6.8L16.75 -6.35L16.6 -5.9L17.2 -5.15L16.55 -5.7L16.6 -5.9L16.35 -6.3L16.15 -6.95L16.05 -7.05L15.95 -7.05L15.95 -7.15L16.05 -7.05L16.1 -7.05L15.5 -8.1L15.55 -8.5L15.15 -9.2Q15.15 -8.7 14.65 -8.7L14.4 -8.75L15.45 -6.95L15.45 -7.25L15.65 -6.55L15.75 -6.4L16.55 -5.7L16.35 -5.45L15.85 -5.9L14.9 -6.8L14.65 -6.95L15.3 -6.95L14.7 -7.95L14.45 -8.3L14.2 -8Q13.85 -7.8 14.05 -7.35L15.85 -5.8M20.5 -17L20.2 -16.65L20.4 -16.8L20.3 -16.6L20.6 -16.7L20.85 -16.95L20.5 -17M21.35 -1.95L21.45 -1.85L21.45 -1.95Q21.35 -2 21.35 -1.95M22.2 0.15L22.3 0.15L22.4 0.35L22.2 0.15M15.75 -6.25L15.65 -6.55L15.45 -6.95L15.3 -6.95L15.75 -6.25M15.9 -5.8L15.9 -5.75L15.85 -5.8L15.15 -5.3L15.9 -5.8M13 -5.45L13.3 -5.25L13.35 -5.1L13 -5.45" />
</g>
<g id="PathID_16" transform="matrix(0.527439, 0, 0, 0.625426, 152.45, 34.95)" opacity="1">
</g>
<g id="PathID_17" transform="matrix(0.527439, 0, 0, 0.625426, 170.65, 34.95)" opacity="1">
<path style="fill:#272A3F;fill-opacity:1" d="M7.25 -11.55L7.65 -11.45L7.8 -11.75L8.65 -12.05L9.3 -12.15L9.5 -12L10.95 -12.5L12.5 -13.05L12.45 -13.65L12.2 -13.9L12.3 -14.75L11.85 -15.75L11.95 -16.7L11.85 -16.85L11.95 -18.65L11.95 -19.1L12.35 -20.9L12.3 -21.9L12.95 -21.8Q13.15 -22 13.25 -22L13.25 -21.9L14.15 -22.5L15.65 -22.75L16.1 -22.9L16.25 -22.95L16.35 -23.15L16.75 -23.15L16.9 -21.35L16.9 -20.05L16.35 -16.85L16.25 -15.75L16.75 -14.65L17.05 -16.15L17.75 -20.2L17.8 -20.75L17.5 -23.1L18.25 -22.75L18.35 -22.35L18.55 -22.15L18.65 -20.6L18.6 -19.35L18.15 -17.85L18.2 -17.7L18.05 -17.5L18.1 -17.5L17.85 -16.45L17.45 -14.9Q17.35 -14.45 17.3 -13.5L16.9 -13.25L16.85 -12.95L16.65 -12.85L16.6 -12.65L15.8 -10.2Q15.15 -8.7 15 -8.5L13.4 -7L14.15 -9.15L14.75 -9.15L15.35 -10.15L14.6 -10.6L14.6 -10.9L14.25 -9.9L14.25 -9.5L14.15 -9.15L13.8 -9.15L14.25 -10.95Q14.2 -10.85 14.2 -11L14.1 -11.25L14.05 -11.3L13.9 -11.55L13.9 -11.7L14.05 -11.75L13.9 -11.9L13.9 -11.7L12.25 -11.05L10.85 -10.4L9.9 -10.05L8.6 -9.5L8.45 -9.4L8.1 -9.1L7.25 -8.65L7.35 -6.9L7.6 -5.35L7.75 -5L7.75 -4.95Q7.85 -4.55 8.35 -4.3L9.25 -3.65L9.95 -3.2L9.95 -2.7L10.05 -3.15L9.95 -3.2L10.65 -3.3L10.35 -2.55L11.2 -3.1L10.8 -2.45L10.5 -2.4L10.5 -2.35L10.35 -2.35L10.6 -2.1L10.8 -2.45L11.4 -2.6L11.6 -2.4L12.15 -2.75L12.25 -2.8L12.9 -3.2L13.65 -3.75L13.9 -3.9L14.95 -5.45L15.4 -6.05L15.7 -6.2L16.35 -6.8L18.35 -8.3L18.2 -7.85L18.15 -7.8L18.15 -7.55L18.1 -7.4L16.95 -6.65L16.4 -6.05L15.45 -4.95L13.9 -3.9L13.55 -3.4L13.95 -3.55L14.5 -4.05L15 -3.9Q14.65 -3.65 13.95 -3.55L13.7 -3.3L14.55 -3.35L15.2 -3.8L15.45 -4.1L15.95 -4.5L15.95 -4.6Q16.2 -4.75 16.45 -5.05L17.05 -5.35L17.15 -5.7L17.6 -6L17.65 -6.2L17.8 -6.3L17.9 -6.75L17.8 -6.8L18.05 -7.2L17.9 -6.75L18.35 -6.5L18.5 -6.45L18.8 -6.8L19.3 -8.25L18.6 -8L19.3 -8.8L20.5 -10.3L21.1 -9.75L20.9 -9.05L20.5 -8.8L20.5 -8.75L20.15 -8.4L19.8 -7.95L18.6 -6.35L18.75 -6.05L19.75 -7.25L20.8 -8.75L20.9 -9.05L21.95 -9.8L21.95 -9.7L22.05 -9.75L21.85 -8.75L21.6 -8.35L21.55 -8.35L21.5 -7.9L20.6 -6.5Q20.1 -5.85 19.6 -5.45L19.2 -5L18.65 -4.5L18.4 -4.2L16.45 -2.7Q14.6 -1.65 13.5 -1.2Q12.8 -0.75 12.2 -0.6L9.8 0L9.8 -0.05L9.55 0.15L8.15 0.65L7.55 0.65L6.65 0.45L6.6 0.25L6.35 0.4L6.65 0.45L6.65 0.65L5.45 0.65L3.7 0.15Q2.45 -0.05 1.5 -1.6L1.25 -2.05Q0.8 -2.9 0.75 -3.45L0.65 -3.6L0.65 -4.1L0.55 -4.6L0.6 -5L1.15 -5.15L0.6 -5.2L0.45 -7.25L0.7 -8.8L1.2 -10.45L2.05 -13L2.65 -14.4L3.4 -15.6Q3.4 -15.75 4 -16.45L5.4 -18.45L6.05 -18.95L7.6 -19.4L8.85 -19.9L9.05 -20.1L10.45 -20.1L10.4 -19.95L10.4 -19.9L10.95 -19.55L9 -15.15L7.85 -11.9L7.8 -11.75L7.25 -11.55M18.25 -7.55L18.15 -7.4L18.15 -7.25L18.1 -7.35L18.15 -7.4L18.15 -7.55L18.2 -7.85L18.6 -8L18.25 -7.55M16.75 -23.15L16.75 -23.45L17.3 -23.2L17.5 -23.2L16.75 -23.15M17.5 -23.2L17.5 -23.1L17.3 -23.2" />
</g>
<g id="PathID_18" transform="matrix(0.527439, 0, 0, 0.625426, 170.65, 34.95)" opacity="1">
</g>
<g id="PathID_19" transform="matrix(0.625426, 1.09353e-007, 0, 0.625426, 12.15, 36.3)" opacity="1">
<path style="fill:#FFFFFF;fill-opacity:1" d="M1 -1.35L1.9 -2.45L1 -2.3L1 -1.35M4.7 -4L4.35 -3.1L4.9 -1.4L5.05 -2.1L5.2 -3.05L5.05 -3.75Q4.7 -3.9 4.7 -4M14.3 -8.3L13.65 -13.4L13.85 -4.85L14.3 -8.3M8.35 -17.7L7.65 -16.15L7.15 -14.25L6.55 -12.85L5.3 -9.5L5.65 -9.75L5.4 -9.35L5.3 -9.4L4.9 -6.95L5.45 -8.45L8.3 -15.85L8.9 -17.35L8.75 -17.35L8.35 -17.35L8.35 -17.7M32.15 -16.75L32.15 -16.5L32.25 -16.65L31.05 -12.15L30.95 -11.35L30.5 -9.6L30.7 -7.65L29.95 -8.1L29.95 -5.1L30.05 -5.25L30.8 -5.3L30.75 -6.8L30.7 -7.65L30.75 -7.6L30.75 -7.75L30.9 -8.75L31.4 -10.8L31.8 -12.15L31.8 -13.3L32.05 -14.55L32.3 -14.95L32.75 -16.8L32.55 -17.7L32.35 -17.7L32.15 -16.75M30.85 -5.95L31.1 -7.45L31 -7.45L30.75 -7.6L30.75 -6.8L30.85 -5.95M27.55 -16.65L27.8 -16.8L28.05 -17.7L28.15 -17.35L28.4 -17.7L28.65 -18.2L28.9 -18.25L28.9 -18.55L29 -18.6L28.6 -19.35L28 -18.7L27.55 -16.65M27.95 -16.25L28.05 -16.85L28 -16.3L28.35 -16.8L28.15 -17.35L27.8 -16.8L27.45 -15.55L27.65 -15.8L27.95 -16.25L27.6 -13.9L27.75 -14.2L27.35 -10.8L27.15 -9.5L27.6 -12.1L28.05 -12.85L27.4 -9.95L27.25 -9.2L27.05 -8.6L27.15 -9.5L27 -8.5L26.95 -7.95L26.8 -7.45L26.8 -5.75L26.85 -5.65L26.85 -7.25L26.95 -7.95L27.1 -8.45L27.25 -9.2L28.5 -12.7L28.8 -14.05L28.05 -12.85L28.5 -14.8L28.55 -14.8L28.5 -14.45L28.6 -14.8L28.95 -14.7L29 -14.9L29.65 -17.2L29.75 -17.95L30 -18.65L29.8 -18.3L29.4 -19.15L28.9 -16.45L27.75 -14.2L28 -16.3L27.95 -16.25M29.05 -10.3L29.05 -10.6L29.65 -11L29.7 -11.75L29.9 -12.5L30.1 -12.85L30.25 -12.35L30.4 -13.4L30.1 -12.85L30.05 -13.1L31.9 -20.3L31.5 -22.2L31.2 -21.25L31.35 -21.1L31.25 -20.3L31.4 -20.4L31.15 -19.85L30.6 -17.95L30.45 -17.85L29.75 -14.15L30.05 -13.1L29.9 -12.5L29.05 -11L29.05 -10.6L28.75 -10.4L28.45 -8.15Q28.45 -7.85 28.6 -7.7L28.45 -6.85L28.55 -6.05L28.55 -4.6L28.8 -4.05L29.3 -4.1L29.35 -4L29.4 -4.65L29.2 -4.65L29.05 -5.55L29.05 -8.25L29.25 -8.25L29.55 -10.25M29.85 -10.2L29.85 -11.1L29.65 -11L29.65 -10.85L29.55 -10.25L29.05 -10.3L29.85 -10.2M8.6 -21.6L8.15 -20.05L7.5 -18.25L6.8 -16.5L6.6 -15.95L5.8 -13.6L6 -13.55L5.9 -13.35L5.5 -12.8L6.6 -13.4L6 -13.55L7.75 -17.95L9.2 -21.2L9.7 -21.35L9.9 -22.55L9.95 -22.6L10.15 -23.05L9.3 -22.95L9.25 -23.25L8.95 -22.4L8.6 -21.6M27.95 -10.45L27.7 -7.75L28.3 -7.75L28.5 -9.7L29.5 -14.6L28.95 -14.7L28.8 -14.05L29.15 -14.6L28.5 -12.7L27.95 -10.45M31.75 -27.9L31.15 -26.1L30.4 -24.55L29.1 -22.95L30.6 -27L30.85 -27.95L31.9 -28.4L31.75 -27.9M13.75 -33.6L14 -30.6L13.9 -30.7L13.9 -29.5L14.15 -28.8L14 -30.6L15.3 -29.3L15.45 -28.3L15.65 -26.95L15.75 -26.25L16.15 -23.4L16.8 -19L16.9 -17.35L17.1 -16.75L17.1 -15.35L17.4 -12.4L17.2 -12.85L16.5 -17.2L15.7 -17.05L15.75 -16.25L17.2 -12.85L17.35 -12L17.5 -11.15L17.4 -10.85L16.7 -12.15L16.9 -9.2L17.4 -10.85L18.15 -9.5L18.15 -8.05L18.45 -5.3L18.35 -5.15L18.5 -4.75L18.45 -5.3L19.8 -7.2L20.35 -8.1L20.8 -8.5L22.4 -10.35L21.95 -9.9L24.9 -15.35L28.85 -21.45L30.4 -24.55L31.75 -26.25L32.4 -28.6L31.9 -28.4L32 -28.8L32 -29.4L32.6 -31.35L34.1 -33.6L34.8 -32.65L34.45 -32.5L34.25 -31.4L34.2 -31.1L34.35 -31.5L34.25 -31.4L34.45 -31.85L34.35 -31.5L34.5 -31.65L34.9 -31.6L34.85 -32.6L34.8 -32.65L35.75 -33.1L37.05 -34.3L37.6 -33.55L37.6 -33.5L37.7 -33.45L37.6 -33.55L37.7 -34.05L38 -33.85L38.65 -34.7L39.6 -34L39.15 -31.75L37.8 -26.45L37.3 -25.25L36.8 -24.75L36.9 -25.1L36.65 -26.95L35.9 -23.85L36.8 -24.75L36.1 -22.6L33.6 -17L32.45 -12.4L32.05 -10.55L32.55 -6.65L32.55 -8.3L33.05 -11.65L34.15 -16.5L36.1 -22.6L36.7 -23.95L34.55 -16.25L33.65 -12.45L33.55 -11.65L32.85 -7.95L32.85 -6.8L32.95 -6.75L32.9 -5.65L32.95 -5.55L33.4 -5.2L34.65 -6.05L35.25 -6.15L37.55 -7.45L37.6 -7.25L37.95 -7.6L38.6 -6.9L38 -6.35L38.1 -6.25L37.3 -5.25L36.1 -4.1L35.65 -4L35.65 -4.15L34.6 -3.9L34.95 -3.9L35.65 -4L35.6 -3.05L34.1 -2.3L32.3 -1.85L31.95 -1.8L31.5 -1.7L31 -1.7L31 -1.6L31.5 -1.7L31.85 -1.7L31.95 -1.5L31.05 -1.5L30.1 -1.5L27.5 -2.15L27.05 -2.65L27.4 -2.4L27.15 -3.1L27.25 -3.1L27.05 -3.9L27 -4.05L26.9 -4.7L27.05 -3.9L27.65 -2.65L28.35 -2.8L28.4 -2.95L27.8 -3.4L27.45 -4.3L26.85 -5.65L26.85 -5L26.8 -5.3L26.8 -5.75L26.2 -7.1L26.2 -5L26.55 -3.2L27.05 -2.65L25.8 -3.5L25.65 -5.1L25.65 -6.1Q25.6 -6.15 25.65 -6.2Q25.55 -6.3 25.55 -6.65L25.75 -8.25L26 -9.45L25.95 -9.7L26.1 -10.2L26.2 -11L27.45 -15.55L27.2 -15.2L26.75 -14L26.45 -14.05L26 -13.1L25.15 -11.7L24.5 -10.85L23.65 -9.35L22.95 -8.55L22.6 -7.85L22.3 -7.8L22 -7.95L21.7 -7.8L22.3 -7.8L22.7 -7.6L22.25 -6.4L21.25 -4.75L19.85 -2.4L19.3 -1.8L19.55 -1.75L19.55 -0.8L18.9 -0.75L18.45 -0.35L18.45 0.05L17.8 0.15L17.7 0.35L15.65 1.6L15.65 1.65L15.65 1.8L15.5 1.8L15.45 1.8Q14.95 2 14.6 2Q13.95 2 13.7 1.35L13.25 0.4L13.1 -0.95L13.4 -0.65L12.25 -7.65L12 -10.85L13.5 -5.85L13.5 -4.8L13.9 -2.45L14.05 0.35L14.1 -1.05M29.8 -18.25L29.75 -17.95L28.6 -14.8L28.55 -14.8L28.85 -16.2L28.9 -16.45L29.8 -18.25M5.3 -12.4L5 -11.4L4.05 -8.45L3.95 -7.75L5 -11.4L5.4 -12.6L5.3 -12.4M13.9 -2.45L13.85 -3.15L14.25 -3.2L14.25 -3.4L14.15 -3.5L14.1 -3.75L13.5 -5.85L13.4 -8.5L13.65 -8.05L13.6 -9.65L13.65 -9.75L13.55 -10.5L13.35 -12.15L13.4 -8.5L12.3 -10.85L11.45 -13.55L11.35 -14.75L11.15 -15.9L12.15 -14.15L11.65 -18.5L11 -16.75L11.15 -15.9L10.7 -16.7L10.65 -16.55L10.65 -16.7L10.5 -16.7L10.35 -16.95L10.4 -17L10.9 -17.15L10.3 -17.05L10.35 -16.95L10.05 -16.7L10.5 -16.7L10.6 -16.45L10.65 -16.55L10.6 -15.8L9.8 -14.5L6.05 -5.05L4.95 -0.25L4.85 -0.5L4.9 0L4.7 -0.05L4.65 0.85L4.7 1.6L4.1 1.45L4.1 1.2L3.95 1.25L4.05 1.45L3.75 1.4L3.8 1.25L3.95 1.25L3.85 1.1L3.8 1.25L3.45 1.3L3.75 1.4L3.55 2.05L3 0.8L3.4 0.9L2.65 -0.65L2.65 0.05L3 0.8L2.65 0.75L1.55 1.35L1.5 0.35L0.75 1.7L0.6 -0.15L0.3 -1.35L-0.2 -6.1L0.7 -4.55L0.8 -5.1L0.6 -6.75L0.55 -7.65L0.75 -7.65L0.65 -8.35L0.9 -8.1L0.75 -9.2L0.95 -9.15L1 -9.75L0.85 -12.45L2.55 -11.8L2.65 -11.1L2.4 -10.65L2.05 -10.95L2.2 -10.2L2.4 -10.65L3.05 -10.1L3.45 -10.45L3.15 -9.8L2.9 -9.85L2.9 -9.2L3.15 -9.8L3.3 -9.8L3.5 -10.5L4.65 -13.25L6.6 -16.6L6.8 -16.5L6.85 -17.05L6.6 -16.6L6.05 -16.9L6.1 -17.45L6.45 -17.85L6.4 -17.65L6.95 -18.6L6.45 -17.9L7.3 -20.55L8.75 -22.45L8.6 -24.1L8.6 -24.9L9.2 -25.65L9.6 -26.7L10.1 -29.65L9.95 -30.45L9.9 -33.05L10.95 -31.4L10.85 -31.9L11.2 -33.45L11.5 -32.8L11.5 -33.25Q11.6 -33.45 11.8 -33.6L11.85 -33.7Q12.2 -34.1 12.55 -34.15L12.75 -32.65L13.2 -33.95M14.3 0L15.15 -0.55L14.6 -3.25L14.25 -3.2L14.1 -1.05L13.9 -2.45L14.3 0M0.85 -3.5L1.25 -3.5L1.15 -3.7L0.7 -4.5L0.85 -3.5M12.85 -34.15L12.6 -34.15L12.55 -34.15L12.55 -34.3L12.85 -34.15M12.85 -34.15L13.25 -34.1L13.2 -33.95L13.75 -33.6L12.85 -34.15" />
</g>
<g id="PathID_20" transform="matrix(0.625426, 1.09353e-007, 0, 0.625426, 12.15, 36.3)" opacity="1">
</g>
</svg>
